<?xml version="1.0" standalone="no"?>
<svg viewBox="0 0 200 200" xmlns="http://www.w3.org/2000/svg">
  <path fill="#FF0066" d="M32.8,-56C45.3,-49.6,60.3,-46.5,64.5,-37.8C68.7,-29,62.1,-14.5,61.6,-0.3C61,13.9,66.5,27.7,62.4,36.7C58.4,45.7,44.7,49.8,32.7,54.9C20.8,60,10.4,66.1,-1.7,69C-13.8,72,-27.6,71.9,-36.6,65C-45.5,58.2,-49.7,44.6,-56.8,32.7C-64,20.7,-74.3,10.3,-79.6,-3.1C-84.9,-16.5,-85.3,-32.9,-78.7,-46C-72.2,-59.1,-58.7,-68.8,-44.5,-74.3C-30.2,-79.7,-15.1,-81,-2.5,-76.7C10.1,-72.4,20.2,-62.5,32.8,-56Z" transform="translate(100 100)" />
</svg>
